<svg xmlns="http://www.w3.org/2000/svg" class="css-1j8o68f" viewBox="0 0 200 37.5328" width="200" height="37.5328"><defs id="SvgjsDefs2948" /><g id="SvgjsG2949" fill="#526ab2" transform="matrix(2.38152 0 0 2.38152 -0.0475812 -10.0976)" featurekey="A7DQL5-0"><path d="M 2.08 11.02 l 1.78 1.66 c 0.56 0.52 1 1.0767 1.32 1.67 s 0.48 1.19 0.48 1.79 l 0 0.26 c 0.01334 0.42666 -0.04 0.80666 -0.16 1.14 l 0.74 0 c 0.10666 -0.36 0.15332 -0.73334 0.13998 -1.12 l 0 -0.28 c 0 -0.72 -0.18334 -1.4067 -0.55 -2.06 s -0.87666 -1.2933 -1.53 -1.92 l -1.72 -1.62 c -0.54666 -0.52 -0.99666 -1.0067 -1.35 -1.46 s -0.53 -1.02 -0.53 -1.7 l 0 -0.12 c 0 -0.70666 0.19666 -1.2767 0.59 -1.71 s 0.94334 -0.65 1.65 -0.65 c 0.50666 0 0.92 0.07666 1.24 0.23 s 0.64666 0.38334 0.98 0.69 l 0.46 -0.52 c -0.37334 -0.34666 -0.75668 -0.60666 -1.15 -0.78 s -0.90334 -0.26 -1.53 -0.26 c -0.81334 0 -1.5033 0.26334 -2.07 0.79 s -0.85 1.2567 -0.85 2.19 l 0 0.16 c 0 0.76 0.19 1.41 0.57 1.95 s 0.87666 1.0967 1.49 1.67 Z M 5.96 18.3 l -0.82002 0 c -0.46666 0.68 -1.2133 1.0267 -2.24 1.04 c -0.34666 0 -0.66 -0.04 -0.94 -0.12 l 0 0.7 c 0.28 0.05334 0.59334 0.08 0.94 0.08 c 0.72 0 1.34 -0.14666 1.86 -0.44 s 0.92 -0.71334 1.2 -1.26 Z M 14.84 4.5 l -1.9531e-005 -0.26 l -5.86 0 l 0 0.64 l 3.38 0 l 0 15.12 l 0.7 0 l 0 -15.12 l 1.8 0 c -0.02666 -0.21334 -0.03332 -0.34 -0.01998 -0.38 Z M 15.36 4.24 l 0 0.64 l 1.1 0 l 0 -0.64 l -1.1 0 Z M 27.8 4.26 l 0 10.64 c 0 1.4 -0.37 2.48 -1.11 3.24 s -1.6233 1.1733 -2.65 1.24 l 0 0.25 l 0 0.07 l 0 0.3 c 1.28 -0.08 2.3066 -0.55334 3.08 -1.42 s 1.16 -2.0934 1.16 -3.68 l 0 -10.64 l -0.48 0 Z M 23.3 19.4 c -1.04 -0.08 -1.9067 -0.5 -2.6 -1.26 s -1.04 -1.84 -1.04 -3.24 l 0 -10.64 l -0.6 0 l 0 10.64 c 0 1.6 0.38334 2.83 1.15 3.69 s 1.7967 1.33 3.09 1.41 l 0 -0.29 l 0 -0.31 Z M 32.26 4.24 l -1.38 0 l 0 0.64 l 0.9 0 l 0.44 0 c 1.64 0 2.8734 0.47334 3.7 1.42 s 1.24 2.18 1.24 3.7 l 0 0.22 c 0 1.4933 -0.41334 2.7134 -1.24 3.66 s -2.06 1.42 -3.7 1.42 l -0.64 0 l 0 0 l -0.44 0 l -0.22 0 l -0.04 0 l 0 4.7 l 0.7 0 l 0 -4.04 l 0.68 0 c 1.84 0 3.2366 -0.54334 4.19 -1.63 s 1.43 -2.45 1.43 -4.09 l 0 -0.26 c 0 -1.64 -0.48334 -3.0066 -1.45 -4.1 s -2.3566 -1.64 -4.17 -1.64 Z M 40.48 4.24 l 0 15.76 l 0.52 0 l 0 -15.76 l -0.52 0 Z M 45.4 20 c 0.58666 0 1.1334 -0.06664 1.6401 -0.19998 l -0.16 -0.6 c -0.45334 0.12 -0.94668 0.18 -1.48 0.18 l -1.18 0 l 0 -14.46 l 1.18 0 c 0.86666 0 1.6633 0.17 2.39 0.51 s 1.3533 0.81 1.88 1.41 s 0.94 1.3233 1.24 2.17 s 0.45 1.7767 0.45 2.79 l 0 0.42 c 0 0.74666 -0.1 1.48 -0.3 2.2 s -0.47334 1.3833 -0.82 1.99 s -0.75332 1.1367 -1.22 1.59 s -0.96 0.78 -1.48 0.98 l 0.24 0.58 c 0.58666 -0.24 1.1333 -0.60334 1.64 -1.09 s 0.95 -1.0567 1.33 -1.71 s 0.68 -1.37 0.9 -2.15 s 0.33 -1.5767 0.33 -2.39 l 0 -0.42 c 0 -1.0933 -0.16666 -2.0966 -0.5 -3.01 s -0.79334 -1.7033 -1.38 -2.37 s -1.28 -1.1867 -2.08 -1.56 s -1.6733 -0.56 -2.62 -0.56 l -1.8 0 l 0 15.7 l 1.8 0 Z M 59.92 6.14 c 0 0.08 0.23666 0.84334 0.71 2.29 s 0.99 3.03 1.55 4.75 s 1.3133 3.9934 2.26 6.82 l 0.86 0 l -5.3 -15.76 l -0.16 0 l -5.26 15.76 l 0.82 0 Z M 59.56 15.52 l -0.72 0 l 1.2 4.48 l 0.72 0 Z M 74.4 18.66 l 0.6 1.34 l 0.84 0 l -0.6 -1.34 l -0.84 0 Z M 68.52 18.64 l -0.6 1.36 l 0.8 0 l 0.6 -1.34 l -0.42 0 Z M 69.94 5.46 l -0.52 -1.22 l -0.84 0 l 0.54 1.24 l 0.4 0 Z M 74.66 5.46 l 0.52 -1.22 l -0.8 0 l -0.54 1.2 c 0.12 0 0.26 0.0033398 0.42 0.01 s 0.29334 0.01 0.4 0.01 Z M 79 14.16 l 0 -9.36 l 4.8 0 l 0 -0.56 l -5.36 0 l 0 9.92 l 0.56 0 Z M 84 20 l 0 -0.54 l -5 0 l 0 -4.14 l 0.8 0 l 0 -0.54 l -1.36 0 l 0 5.22 l 5.56 0 Z" /></g></svg>